<svg width="213" height="213" viewBox="0 0 213 213" fill="none" xmlns="http://www.w3.org/2000/svg">
<path d="M151.98 168.372H137.398V168.479H151.98V168.372Z" fill="#EBEBEB"/>
<path d="M79.9474 168.317H56.0062V168.423H79.9474V168.317Z" fill="#EBEBEB"/>
<path d="M143.962 35.554H28.3801V101.771H143.962V35.554Z" fill="#E6E6E6"/>
<path d="M145.683 35.554H29.1853V101.771H145.683V35.554Z" fill="#F0F0F0"/>
<path d="M143.277 99.0663V38.2548L31.5922 38.2548V99.0663H143.277Z" fill="#FAFAFA"/>
<path d="M45.3008 99.0663L59.4227 38.2548H77.941L63.8148 99.0663H45.3008Z" fill="white"/>
<path d="M66.8138 99.0663L80.9357 38.2548H89.2981L75.1762 99.0663H66.8138Z" fill="white"/>
<path d="M99.9907 99.0663L114.117 38.2548H128.401L114.275 99.0663H99.9907Z" fill="white"/>
<path d="M143.277 99.0706V38.2591H142.97V99.0706H143.277Z" fill="#E6E6E6"/>
<path d="M90.9084 35.554H83.9646V101.771H90.9084V35.554Z" fill="#F0F0F0"/>
<path d="M83.9646 99.0663V38.2548H83.6579V99.0663H83.9646Z" fill="#E6E6E6"/>
<path d="M87.5558 35.554H87.313V101.771H87.5558V35.554Z" fill="#E6E6E6"/>
<g opacity="0.7">
<path d="M136.916 85.3661H148.026V32.048H136.916V85.3661Z" fill="#EBEBEB"/>
<path d="M136.916 32.0437H129.721V79.138H136.916V32.0437Z" fill="#E0E0E0"/>
<path d="M118.611 85.3661H129.721V32.048H118.611V85.3661Z" fill="#EBEBEB"/>
<path d="M118.611 32.0437H111.416V79.138H118.611V32.0437Z" fill="#E0E0E0"/>
<path d="M100.306 85.3661H111.416V32.048H100.306V85.3661Z" fill="#EBEBEB"/>
<path d="M100.306 32.0437H93.1108V79.138H100.306V32.0437Z" fill="#E0E0E0"/>
<path d="M82.0007 85.3661H93.1108V32.048H82.0007V85.3661Z" fill="#EBEBEB"/>
<path d="M82.0007 32.0437H74.8056V79.138H82.0007V32.0437Z" fill="#E0E0E0"/>
<path d="M63.6955 85.3661H74.8056V32.048H63.6955L63.6955 85.3661Z" fill="#EBEBEB"/>
<path d="M63.6955 32.0437H56.5004V79.138H63.6955V32.0437Z" fill="#E0E0E0"/>
<path d="M45.3903 85.3661H56.5004L56.5004 32.048H45.3903L45.3903 85.3661Z" fill="#EBEBEB"/>
<path d="M27.0851 85.3661H38.1952L38.1952 32.048H27.0851L27.0851 85.3661Z" fill="#EBEBEB"/>
<path d="M45.3903 32.0437H38.1952V79.138H45.3903V32.0437Z" fill="#E0E0E0"/>
</g>
<path d="M184.539 121.125H170.247V162.902H184.539V121.125Z" fill="#E6E6E6"/>
<path d="M180.718 162.902H184.535V155.694H176.718L180.718 162.902Z" fill="#F5F5F5"/>
<path d="M97.1323 121.125H82.84V162.902H97.1323V121.125Z" fill="#E6E6E6"/>
<path d="M184.535 121.125H93.8009V160.419H184.535V121.125Z" fill="#F5F5F5"/>
<path d="M97.6136 162.902H93.8009V155.694H101.618L97.6136 162.902Z" fill="#F5F5F5"/>
<path d="M181.578 124.571H96.7617V139.115H181.578V124.571Z" fill="#E6E6E6"/>
<path d="M181.578 142.229H96.7617V156.772H181.578V142.229Z" fill="#E6E6E6"/>
<path d="M168.709 58.2044H190.55V54.7027H168.709V58.2044Z" fill="#F0F0F0"/>
<path d="M168.713 54.7027H158.297V58.2044H168.713V54.7027Z" fill="#E6E6E6"/>
<path d="M169.113 58.2044H179.631L171.963 63.2099H169.113V58.2044Z" fill="#EBEBEB"/>
<path d="M168.014 58.2044H178.532L170.864 63.2099H168.014V58.2044Z" fill="#E0E0E0"/>
<path d="M176.918 54.7027H183.755V39.7075H176.918V54.7027Z" fill="#E6E6E6"/>
<path d="M185.732 39.7032H183.755V54.6984H185.732V39.7032Z" fill="#F0F0F0"/>
<path d="M168.108 41.0281H176.918L179.044 54.7027H170.23L168.108 41.0281Z" fill="#E6E6E6"/>
<path d="M179.465 41.0281H176.918L179.044 54.7027H181.591L179.465 41.0281Z" fill="#F0F0F0"/>
<path d="M164.044 54.7027H174.03V39.2048H164.044V54.7027Z" fill="#EBEBEB"/>
<path d="M176.918 39.2048H174.03V54.7027H176.918V39.2048Z" fill="#F5F5F5"/>
<path d="M171.712 54.7027H171.286V45.3733C171.286 44.9878 171.21 44.6061 171.063 44.25C170.915 43.8939 170.699 43.5703 170.426 43.2978C170.154 43.0252 169.83 42.809 169.474 42.6615C169.118 42.514 168.736 42.4381 168.351 42.4381C167.965 42.4381 167.584 42.514 167.228 42.6615C166.872 42.809 166.548 43.0252 166.275 43.2978C166.003 43.5703 165.787 43.8939 165.639 44.25C165.492 44.6061 165.416 44.9878 165.416 45.3733V54.7027H164.99V45.3733C164.99 44.9319 165.077 44.4948 165.246 44.087C165.415 43.6792 165.662 43.3087 165.974 42.9966C166.286 42.6845 166.657 42.4369 167.065 42.268C167.472 42.0991 167.91 42.0121 168.351 42.0121C168.792 42.0121 169.229 42.0991 169.637 42.268C170.045 42.4369 170.416 42.6845 170.728 42.9966C171.04 43.3087 171.287 43.6792 171.456 44.087C171.625 44.4948 171.712 44.9319 171.712 45.3733V54.7027Z" fill="#E0E0E0"/>
<path d="M168.709 88.5824H190.55V85.0807H168.709V88.5824Z" fill="#F0F0F0"/>
<path d="M168.713 85.0765H158.297V88.5782H168.713V85.0765Z" fill="#E6E6E6"/>
<path d="M169.113 88.5782H179.631L171.963 93.5879H169.113V88.5782Z" fill="#EBEBEB"/>
<path d="M168.014 88.5782H178.532L170.864 93.5879H168.014V88.5782Z" fill="#E0E0E0"/>
<path d="M174.588 85.0765H184.573V73.9877H174.588V85.0765Z" fill="#E0E0E0"/>
<path d="M187.133 73.9877H184.573V85.0765H187.133V73.9877Z" fill="#F0F0F0"/>
<path d="M171.499 85.0765H180.057V70.8523H171.499V85.0765Z" fill="#E0E0E0"/>
<path d="M181.8 70.8523H180.057V85.0765H181.8V70.8523Z" fill="#EBEBEB"/>
<path d="M168.739 85.0765H176.24V72.2752H168.739V85.0765Z" fill="#E6E6E6"/>
<path d="M178.409 72.2794H176.24V85.0807H178.409V72.2794Z" fill="#F0F0F0"/>
<path d="M164.044 85.0765H174.03V73.9877H164.044V85.0765Z" fill="#F0F0F0"/>
<path d="M175.474 73.9877H174.03V85.0765H175.474V73.9877Z" fill="#FAFAFA"/>
<path d="M171.712 85.0765H171.286V75.7513C171.286 74.9729 170.977 74.2263 170.426 73.6759C169.876 73.1254 169.129 72.8162 168.351 72.8162C167.572 72.8162 166.826 73.1254 166.275 73.6759C165.725 74.2263 165.416 74.9729 165.416 75.7513V85.0765H164.99V75.7513C164.99 74.8599 165.344 74.005 165.974 73.3746C166.605 72.7443 167.46 72.3902 168.351 72.3902C169.242 72.3902 170.097 72.7443 170.728 73.3746C171.358 74.005 171.712 74.8599 171.712 75.7513V85.0765Z" fill="#E0E0E0"/>
<path d="M64.6242 128.107H60.9478V162.902H64.6242V128.107Z" fill="#F5F5F5"/>
<path d="M66.226 128.107H63.0267V162.902H66.226V128.107Z" fill="#F0F0F0"/>
<path d="M27.5579 128.107H23.8816V162.902H27.5579V128.107Z" fill="#F5F5F5"/>
<path d="M29.1597 128.107H25.9604V162.902H29.1597V128.107Z" fill="#F0F0F0"/>
<path d="M78.5629 128.107H74.8865V162.902H78.5629V128.107Z" fill="#F5F5F5"/>
<path d="M80.1604 128.107H76.9612V162.902H80.1604V128.107Z" fill="#F0F0F0"/>
<path d="M41.4967 128.107H37.8203V162.902H41.4967V128.107Z" fill="#F5F5F5"/>
<path d="M23.8858 128.984H80.1647V124.571H23.8858V128.984Z" fill="#F0F0F0"/>
<path d="M23.8858 128.984H39.8992V124.571H23.8858V128.984Z" fill="#E6E6E6"/>
<path d="M43.0984 128.107H39.8992V162.902H43.0984V128.107Z" fill="#F0F0F0"/>
<path d="M106.5 182.141C152.117 182.141 189.097 179.982 189.097 177.318C189.097 174.655 152.117 172.496 106.5 172.496C60.8829 172.496 23.9029 174.655 23.9029 177.318C23.9029 179.982 60.8829 182.141 106.5 182.141Z" fill="#F5F5F5"/>
<path d="M165.13 177.425H79.956V156.065H165.13C165.569 156.065 165.989 156.239 166.299 156.549C166.609 156.859 166.783 157.28 166.783 157.718V175.772C166.783 176.21 166.609 176.631 166.299 176.941C165.989 177.251 165.569 177.425 165.13 177.425Z" fill="#407BFF"/>
<path opacity="0.2" d="M165.13 177.425H79.956V156.065H165.13C165.569 156.065 165.989 156.239 166.299 156.549C166.609 156.859 166.783 157.28 166.783 157.718V175.772C166.783 176.21 166.609 176.631 166.299 176.941C165.989 177.251 165.569 177.425 165.13 177.425Z" fill="black"/>
<path opacity="0.2" d="M100.838 177.425H113.87V156.065H100.838V177.425Z" fill="black"/>
<path opacity="0.2" d="M119.467 177.425H126.075V156.065H119.467V177.425Z" fill="black"/>
<path d="M51.742 156.065H79.9517V177.425H51.742C51.3013 177.425 50.8788 177.25 50.5672 176.938C50.2556 176.627 50.0806 176.204 50.0806 175.763V157.726C50.0806 157.286 50.2556 156.863 50.5672 156.552C50.8788 156.24 51.3013 156.065 51.742 156.065Z" fill="#407BFF"/>
<path opacity="0.9" d="M50.0806 158.361H74.7587C75.3338 158.361 75.8854 158.59 76.292 158.996C76.6986 159.403 76.9271 159.954 76.9271 160.53V172.956C76.9271 173.531 76.6986 174.083 76.292 174.489C75.8854 174.896 75.3338 175.124 74.7587 175.124H50.0806V158.361Z" fill="white"/>
<path opacity="0.2" d="M154.847 172.854C158.221 172.854 160.956 170.119 160.956 166.745C160.956 163.371 158.221 160.636 154.847 160.636C151.473 160.636 148.738 163.371 148.738 166.745C148.738 170.119 151.473 172.854 154.847 172.854Z" fill="black"/>
<path d="M171.299 156.048H86.0989V140.546H171.299C171.737 140.546 172.158 140.72 172.468 141.03C172.778 141.34 172.952 141.76 172.952 142.199V154.412C172.947 154.848 172.771 155.264 172.462 155.57C172.152 155.876 171.734 156.048 171.299 156.048Z" fill="#263238"/>
<path opacity="0.2" d="M171.299 156.048H86.0989V140.546H171.299C171.737 140.546 172.158 140.72 172.468 141.03C172.778 141.34 172.952 141.76 172.952 142.199V154.412C172.947 154.848 172.771 155.264 172.462 155.57C172.152 155.876 171.734 156.048 171.299 156.048Z" fill="black"/>
<path d="M57.9062 140.58H86.1159V156.082H57.9062C57.4655 156.082 57.043 155.907 56.7314 155.596C56.4198 155.284 56.2448 154.861 56.2448 154.421V142.224C56.2493 141.787 56.4263 141.368 56.7374 141.061C57.0485 140.753 57.4685 140.58 57.9062 140.58Z" fill="#263238"/>
<path opacity="0.9" d="M56.232 142.859H80.94C81.5151 142.859 82.0666 143.088 82.4732 143.494C82.8799 143.901 83.1083 144.452 83.1083 145.027V151.609C83.1095 151.895 83.0542 152.177 82.9457 152.442C82.8373 152.706 82.6777 152.946 82.4763 153.148C82.2748 153.35 82.0354 153.511 81.7718 153.62C81.5081 153.73 81.2255 153.786 80.94 153.786H56.232V142.859Z" fill="white"/>
<path opacity="0.3" d="M103.948 152.393H163.546C164.531 152.393 165.331 151.594 165.331 150.608V146.016C165.331 145.03 164.531 144.231 163.546 144.231H103.948C102.962 144.231 102.163 145.03 102.163 146.016V150.608C102.163 151.594 102.962 152.393 103.948 152.393Z" fill="#407BFF"/>
<path opacity="0.3" d="M89.3492 156.065H91.6113V140.563H89.3492V156.065Z" fill="#407BFF"/>
<path opacity="0.3" d="M93.4772 156.065H95.7393V140.563H93.4772V156.065Z" fill="#407BFF"/>
<path d="M161.867 140.563H76.697V124.554L161.867 124.554C162.306 124.554 162.726 124.728 163.036 125.038C163.346 125.348 163.52 125.768 163.52 126.207V138.91C163.52 139.348 163.346 139.769 163.036 140.079C162.726 140.389 162.306 140.563 161.867 140.563Z" fill="#407BFF"/>
<path opacity="0.3" d="M161.867 140.563H76.697V124.554L161.867 124.554C162.306 124.554 162.726 124.728 163.036 125.038C163.346 125.348 163.52 125.768 163.52 126.207V138.91C163.52 139.348 163.346 139.769 163.036 140.079C162.726 140.389 162.306 140.563 161.867 140.563Z" fill="black"/>
<path opacity="0.9" d="M97.5796 140.563H127.152V124.571H97.5796V140.563Z" fill="white"/>
<path opacity="0.9" d="M139.856 140.563H154.851V124.571H139.856V140.563Z" fill="white"/>
<path d="M48.4873 124.571H76.68V140.58H48.4873C48.2692 140.58 48.0531 140.537 47.8515 140.454C47.65 140.37 47.4668 140.248 47.3125 140.093C47.1583 139.939 47.0359 139.756 46.9524 139.554C46.8689 139.353 46.8259 139.137 46.8259 138.919V126.232C46.8259 126.014 46.8689 125.798 46.9524 125.597C47.0359 125.395 47.1583 125.212 47.3125 125.058C47.4668 124.903 47.65 124.781 47.8515 124.697C48.0531 124.614 48.2692 124.571 48.4873 124.571Z" fill="#407BFF"/>
<path opacity="0.9" d="M46.8259 126.863H71.5041C72.0792 126.863 72.6307 127.091 73.0374 127.498C73.444 127.905 73.6724 128.456 73.6724 129.031V136.098C73.6724 136.674 73.444 137.225 73.0374 137.632C72.6307 138.038 72.0792 138.267 71.5041 138.267H46.8259V126.863Z" fill="white"/>
<path d="M168.027 124.571L82.857 124.571V113.964L168.027 113.964C168.466 113.964 168.886 114.138 169.196 114.448C169.506 114.758 169.68 115.178 169.68 115.616V122.918C169.68 123.356 169.506 123.777 169.196 124.087C168.886 124.397 168.466 124.571 168.027 124.571Z" fill="#407BFF"/>
<path opacity="0.3" d="M168.027 124.571L82.857 124.571V113.964L168.027 113.964C168.466 113.964 168.886 114.138 169.196 114.448C169.506 114.758 169.68 115.178 169.68 115.616V122.918C169.68 123.356 169.506 123.777 169.196 124.087C168.886 124.397 168.466 124.571 168.027 124.571Z" fill="white"/>
<path opacity="0.2" d="M168.027 124.571L82.857 124.571V113.964L168.027 113.964C168.466 113.964 168.886 114.138 169.196 114.448C169.506 114.758 169.68 115.178 169.68 115.616V122.918C169.68 123.356 169.506 123.777 169.196 124.087C168.886 124.397 168.466 124.571 168.027 124.571Z" fill="black"/>
<path d="M54.6473 113.964H82.857V124.571H54.6473C54.2067 124.571 53.7841 124.396 53.4725 124.084C53.1609 123.773 52.9859 123.35 52.9859 122.91V115.625C52.9859 115.184 53.1609 114.762 53.4725 114.45C53.7841 114.139 54.2067 113.964 54.6473 113.964Z" fill="#407BFF"/>
<path opacity="0.3" d="M54.6473 113.964H82.857V124.571H54.6473C54.2067 124.571 53.7841 124.396 53.4725 124.084C53.1609 123.773 52.9859 123.35 52.9859 122.91V115.625C52.9859 115.184 53.1609 114.762 53.4725 114.45C53.7841 114.139 54.2067 113.964 54.6473 113.964Z" fill="white"/>
<path opacity="0.9" d="M52.9859 116.26H77.6598C78.2349 116.26 78.7864 116.488 79.1931 116.895C79.5997 117.301 79.8282 117.853 79.8282 118.428V120.132C79.8181 120.7 79.5852 121.242 79.1797 121.641C78.7741 122.039 78.2283 122.262 77.6598 122.262H52.9859V116.26Z" fill="white"/>
<path opacity="0.4" d="M90.4782 121.776H129.082V116.762H90.4782V121.776Z" fill="#263238"/>
<path d="M97.5114 110.453H109.691V113.968H97.5114C97.4391 113.968 97.3698 113.939 97.3186 113.888C97.2675 113.837 97.2388 113.767 97.2388 113.695V110.713C97.2421 110.643 97.2722 110.577 97.323 110.529C97.3738 110.48 97.4413 110.453 97.5114 110.453Z" fill="#407BFF"/>
<path opacity="0.2" d="M97.5114 110.453H109.691V113.968H97.5114C97.4391 113.968 97.3698 113.939 97.3186 113.888C97.2675 113.837 97.2388 113.767 97.2388 113.695V110.713C97.2421 110.643 97.2722 110.577 97.323 110.529C97.3738 110.48 97.4413 110.453 97.5114 110.453Z" fill="black"/>
<path d="M114.334 113.972H109.708V110.458H114.351C114.424 110.458 114.493 110.486 114.544 110.537C114.595 110.589 114.624 110.658 114.624 110.73V113.712C114.622 113.748 114.613 113.784 114.598 113.817C114.582 113.849 114.56 113.879 114.534 113.903C114.507 113.927 114.475 113.946 114.441 113.958C114.407 113.969 114.37 113.974 114.334 113.972Z" fill="#407BFF"/>
<path opacity="0.9" d="M114.611 113.593H110.551C110.456 113.593 110.365 113.555 110.298 113.488C110.231 113.421 110.193 113.33 110.193 113.235V111.19C110.193 111.095 110.231 111.004 110.298 110.937C110.365 110.87 110.456 110.832 110.551 110.832H114.611V113.593Z" fill="white"/>
<path d="M96.4975 107.902H108.677V110.458H96.4975C96.4252 110.458 96.3559 110.429 96.3047 110.378C96.2536 110.327 96.2249 110.257 96.2249 110.185V108.178C96.2243 108.142 96.231 108.106 96.2444 108.073C96.2578 108.039 96.2778 108.009 96.3032 107.983C96.3286 107.957 96.3588 107.937 96.3922 107.923C96.4256 107.909 96.4614 107.902 96.4975 107.902Z" fill="#263238"/>
<path opacity="0.2" d="M96.4975 107.902H108.677V110.458H96.4975C96.4252 110.458 96.3559 110.429 96.3047 110.378C96.2536 110.327 96.2249 110.257 96.2249 110.185V108.178C96.2243 108.142 96.231 108.106 96.2444 108.073C96.2578 108.039 96.2778 108.009 96.3032 107.983C96.3286 107.957 96.3588 107.937 96.3922 107.923C96.4256 107.909 96.4614 107.902 96.4975 107.902Z" fill="black"/>
<path d="M113.32 110.458H108.677V107.902H113.32C113.393 107.902 113.462 107.93 113.513 107.981C113.564 108.033 113.593 108.102 113.593 108.174V110.181C113.593 110.217 113.587 110.253 113.573 110.286C113.56 110.32 113.54 110.35 113.515 110.376C113.489 110.402 113.459 110.422 113.426 110.436C113.392 110.45 113.356 110.458 113.32 110.458Z" fill="#263238"/>
<path opacity="0.9" d="M113.597 110.078H109.537C109.49 110.078 109.444 110.069 109.4 110.051C109.357 110.033 109.318 110.007 109.284 109.974C109.251 109.94 109.225 109.901 109.207 109.857C109.189 109.814 109.18 109.768 109.18 109.721V108.639C109.18 108.544 109.217 108.453 109.284 108.385C109.351 108.318 109.442 108.281 109.537 108.281H113.597V110.078Z" fill="white"/>
<path d="M98.0482 105.273H110.227V107.906H98.0482C97.9758 107.906 97.9065 107.877 97.8554 107.826C97.8042 107.775 97.7755 107.705 97.7755 107.633V105.546C97.7755 105.51 97.7826 105.475 97.7963 105.441C97.81 105.408 97.8301 105.378 97.8554 105.353C97.8807 105.328 97.9107 105.308 97.9438 105.294C97.9769 105.28 98.0123 105.273 98.0482 105.273Z" fill="#407BFF"/>
<path opacity="0.3" d="M98.0482 105.273H110.227V107.906H98.0482C97.9758 107.906 97.9065 107.877 97.8554 107.826C97.8042 107.775 97.7755 107.705 97.7755 107.633V105.546C97.7755 105.51 97.7826 105.475 97.7963 105.441C97.81 105.408 97.8301 105.378 97.8554 105.353C97.8807 105.328 97.9107 105.308 97.9438 105.294C97.9769 105.28 98.0123 105.273 98.0482 105.273Z" fill="black"/>
<path d="M114.871 107.902H110.228V105.269H114.871C114.943 105.269 115.013 105.298 115.064 105.349C115.115 105.4 115.144 105.469 115.144 105.542V107.625C115.144 107.661 115.137 107.697 115.124 107.73C115.111 107.764 115.091 107.794 115.065 107.82C115.04 107.846 115.01 107.866 114.976 107.88C114.943 107.894 114.907 107.902 114.871 107.902Z" fill="#407BFF"/>
<path opacity="0.9" d="M115.144 107.527H111.084C110.989 107.527 110.898 107.489 110.831 107.422C110.764 107.355 110.726 107.264 110.726 107.169V106.006C110.726 105.911 110.764 105.82 110.831 105.753C110.898 105.686 110.989 105.648 111.084 105.648H115.144V107.527Z" fill="white"/>
<path d="M97.0343 103.518H109.214V105.265H97.0343C96.962 105.265 96.8926 105.236 96.8415 105.185C96.7904 105.134 96.7617 105.064 96.7617 104.992V103.791C96.7617 103.718 96.7904 103.649 96.8415 103.598C96.8926 103.547 96.962 103.518 97.0343 103.518Z" fill="#407BFF"/>
<path opacity="0.3" d="M97.0343 103.518H109.214V105.265H97.0343C96.962 105.265 96.8926 105.236 96.8415 105.185C96.7904 105.134 96.7617 105.064 96.7617 104.992V103.791C96.7617 103.718 96.7904 103.649 96.8415 103.598C96.8926 103.547 96.962 103.518 97.0343 103.518Z" fill="white"/>
<path opacity="0.2" d="M97.0343 103.518H109.214V105.265H97.0343C96.962 105.265 96.8926 105.236 96.8415 105.185C96.7904 105.134 96.7617 105.064 96.7617 104.992V103.791C96.7617 103.718 96.7904 103.649 96.8415 103.598C96.8926 103.547 96.962 103.518 97.0343 103.518Z" fill="black"/>
<path d="M113.861 105.282H109.218V103.535H113.861C113.934 103.535 114.003 103.564 114.054 103.615C114.105 103.666 114.134 103.735 114.134 103.808V105.005C114.135 105.041 114.128 105.077 114.114 105.11C114.101 105.144 114.081 105.175 114.056 105.2C114.03 105.226 114 105.247 113.967 105.26C113.933 105.274 113.897 105.282 113.861 105.282Z" fill="#407BFF"/>
<path opacity="0.3" d="M113.861 105.282H109.218V103.535H113.861C113.934 103.535 114.003 103.564 114.054 103.615C114.105 103.666 114.134 103.735 114.134 103.808V105.005C114.135 105.041 114.128 105.077 114.114 105.11C114.101 105.144 114.081 105.175 114.056 105.2C114.03 105.226 114 105.247 113.967 105.26C113.933 105.274 113.897 105.282 113.861 105.282Z" fill="white"/>
<path opacity="0.9" d="M114.13 104.894H110.07C109.975 104.894 109.884 104.856 109.817 104.789C109.75 104.722 109.712 104.631 109.712 104.536V104.259C109.712 104.164 109.75 104.073 109.817 104.006C109.884 103.939 109.975 103.901 110.07 103.901H114.13V104.89V104.894Z" fill="white"/>
<path d="M96.4975 100.962H108.677V103.518H96.4975C96.4252 103.518 96.3559 103.489 96.3047 103.438C96.2536 103.387 96.2249 103.318 96.2249 103.245V101.239C96.2243 101.203 96.231 101.167 96.2444 101.133C96.2578 101.1 96.2778 101.069 96.3032 101.043C96.3286 101.018 96.3588 100.997 96.3922 100.983C96.4256 100.969 96.4614 100.962 96.4975 100.962Z" fill="#263238"/>
<path opacity="0.2" d="M96.4975 100.962H108.677V103.518H96.4975C96.4252 103.518 96.3559 103.489 96.3047 103.438C96.2536 103.387 96.2249 103.318 96.2249 103.245V101.239C96.2243 101.203 96.231 101.167 96.2444 101.133C96.2578 101.1 96.2778 101.069 96.3032 101.043C96.3286 101.018 96.3588 100.997 96.3922 100.983C96.4256 100.969 96.4614 100.962 96.4975 100.962Z" fill="black"/>
<path d="M111.774 103.539H108.69V100.983H111.787C111.859 100.983 111.928 101.012 111.979 101.063C112.031 101.114 112.059 101.184 112.059 101.256V103.262C112.06 103.3 112.053 103.337 112.039 103.371C112.024 103.406 112.003 103.437 111.977 103.463C111.95 103.489 111.918 103.509 111.883 103.522C111.848 103.535 111.811 103.541 111.774 103.539Z" fill="#263238"/>
<path opacity="0.9" d="M112.051 103.147H109.537C109.442 103.147 109.351 103.11 109.284 103.043C109.217 102.975 109.18 102.884 109.18 102.79V101.708C109.18 101.613 109.217 101.522 109.284 101.454C109.351 101.387 109.442 101.35 109.537 101.35H112.051V103.147Z" fill="white"/>
<path d="M98.0482 98.3421H110.227V100.962H98.0482C97.9758 100.962 97.9065 100.933 97.8554 100.882C97.8042 100.831 97.7755 100.762 97.7755 100.689V98.602C97.7788 98.5319 97.809 98.4658 97.8597 98.4174C97.9105 98.369 97.978 98.342 98.0482 98.3421Z" fill="#407BFF"/>
<path opacity="0.3" d="M98.0482 98.3421H110.227V100.962H98.0482C97.9758 100.962 97.9065 100.933 97.8554 100.882C97.8042 100.831 97.7755 100.762 97.7755 100.689V98.602C97.7788 98.5319 97.809 98.4658 97.8597 98.4174C97.9105 98.369 97.978 98.342 98.0482 98.3421Z" fill="black"/>
<path d="M113.325 100.975H110.228V98.3549H113.325C113.397 98.3549 113.466 98.3836 113.517 98.4347C113.568 98.4859 113.597 98.5552 113.597 98.6275V100.711C113.595 100.781 113.565 100.849 113.514 100.898C113.463 100.947 113.395 100.975 113.325 100.975Z" fill="#407BFF"/>
<path opacity="0.9" d="M113.597 100.596H111.084C110.989 100.596 110.898 100.558 110.831 100.491C110.764 100.424 110.726 100.333 110.726 100.238V99.0748C110.726 98.9799 110.764 98.8889 110.831 98.8218C110.898 98.7547 110.989 98.717 111.084 98.717H113.597V100.596Z" fill="white"/>
<path d="M97.0343 96.5998H109.214V98.3464H97.0343C96.962 98.3464 96.8926 98.3176 96.8415 98.2665C96.7904 98.2154 96.7617 98.146 96.7617 98.0737V96.8724C96.7617 96.8001 96.7904 96.7307 96.8415 96.6796C96.8926 96.6285 96.962 96.5998 97.0343 96.5998Z" fill="#407BFF"/>
<path opacity="0.3" d="M97.0343 96.5998H109.214V98.3464H97.0343C96.962 98.3464 96.8926 98.3176 96.8415 98.2665C96.7904 98.2154 96.7617 98.146 96.7617 98.0737V96.8724C96.7617 96.8001 96.7904 96.7307 96.8415 96.6796C96.8926 96.6285 96.962 96.5998 97.0343 96.5998Z" fill="white"/>
<path opacity="0.2" d="M97.0343 96.5998H109.214V98.3464H97.0343C96.962 98.3464 96.8926 98.3176 96.8415 98.2665C96.7904 98.2154 96.7617 98.146 96.7617 98.0737V96.8724C96.7617 96.8001 96.7904 96.7307 96.8415 96.6796C96.8926 96.6285 96.962 96.5998 97.0343 96.5998Z" fill="black"/>
<path d="M112.315 98.3421H109.218V96.5955H112.315C112.387 96.5955 112.457 96.6242 112.508 96.6754C112.559 96.7265 112.588 96.7958 112.588 96.8681V98.0695C112.588 98.1418 112.559 98.2111 112.508 98.2622C112.457 98.3134 112.387 98.3421 112.315 98.3421Z" fill="#407BFF"/>
<path opacity="0.3" d="M112.315 98.3421H109.218V96.5955H112.315C112.387 96.5955 112.457 96.6242 112.508 96.6754C112.559 96.7265 112.588 96.7958 112.588 96.8681V98.0695C112.588 98.1418 112.559 98.2111 112.508 98.2622C112.457 98.3134 112.387 98.3421 112.315 98.3421Z" fill="white"/>
<path opacity="0.9" d="M112.583 97.9672H110.07C109.975 97.9672 109.884 97.9295 109.817 97.8624C109.75 97.7953 109.712 97.7043 109.712 97.6094V97.3325C109.712 97.2376 109.75 97.1466 109.817 97.0794C109.884 97.0123 109.975 96.9746 110.07 96.9746H112.583V97.963V97.9672Z" fill="white"/>
<path d="M45.4755 143.349L42.6639 141.939L44.9473 134.953L47.7589 136.363L45.4755 143.349Z" fill="#FFC3BD"/>
<path d="M42.911 140.84L46.3616 141.564C46.4205 141.575 46.473 141.607 46.508 141.656C46.543 141.705 46.5577 141.765 46.549 141.824L46.123 144.589C46.0923 144.731 46.0066 144.856 45.8846 144.936C45.7626 145.015 45.6141 145.044 45.4712 145.015C44.2742 144.742 43.7119 144.55 42.1953 144.231C41.2624 144.035 38.0375 143.379 36.7936 142.953C35.5497 142.527 36.0055 141.304 36.5721 141.377C39.1281 141.692 41.3135 141.406 42.3231 140.908C42.5056 140.819 42.713 140.795 42.911 140.84Z" fill="#263238"/>
<path opacity="0.2" d="M47.7589 136.367L44.9473 134.957L43.6394 138.965L46.5831 139.967L47.7589 136.367Z" fill="black"/>
<path d="M76.254 101.145C76.254 101.145 52.1467 103.48 50.1317 112.26C47.2306 124.873 43.3157 136.861 43.3157 136.861L48.7088 137.811C49.5353 134.22 55.6825 121.623 58.5665 113.133C65.0971 112.157 82.5545 115.863 85.1702 110.896C86.4674 108.374 87.1794 105.591 87.2533 102.755L76.254 101.145Z" fill="#407BFF"/>
<path opacity="0.3" d="M76.254 101.145C76.254 101.145 52.1467 103.48 50.1317 112.26C47.2306 124.873 43.3157 136.861 43.3157 136.861L48.7088 137.811C49.5353 134.22 55.6825 121.623 58.5665 113.133C65.0971 112.157 82.5545 115.863 85.1702 110.896C86.4674 108.374 87.1794 105.591 87.2533 102.755L76.254 101.145Z" fill="black"/>
<path d="M49.0283 139.719L42.7235 137.436L43.026 134.901L49.6247 136.64L49.0283 139.719Z" fill="#407BFF"/>
<path d="M41.7097 141.147C41.9904 141.2 42.2763 141.22 42.5617 141.206C42.5759 141.206 42.5897 141.202 42.6018 141.195C42.6138 141.187 42.6235 141.176 42.6298 141.164C42.6362 141.152 42.6395 141.139 42.6395 141.125C42.6395 141.112 42.6362 141.099 42.6298 141.087C42.5446 140.997 41.7778 140.235 41.3944 140.286C41.3475 140.294 41.3035 140.314 41.2663 140.344C41.2291 140.374 41.1999 140.413 41.1814 140.456C41.1413 140.52 41.1201 140.594 41.1201 140.669C41.1201 140.745 41.1413 140.819 41.1814 140.882C41.3204 141.031 41.5077 141.124 41.7097 141.147ZM42.3742 141.061C41.8034 141.061 41.403 140.955 41.2879 140.78C41.2639 140.74 41.2512 140.695 41.2512 140.648C41.2512 140.602 41.2639 140.556 41.2879 140.516C41.2947 140.494 41.3075 140.475 41.3248 140.46C41.3421 140.445 41.3633 140.435 41.3859 140.431C41.6117 140.393 42.0675 140.759 42.3742 141.061Z" fill="#407BFF"/>
<path d="M42.5361 141.206H42.5702C42.5817 141.202 42.5919 141.196 42.6001 141.187C42.6083 141.178 42.6141 141.167 42.617 141.155C42.617 141.121 42.8854 140.248 42.617 139.877C42.5856 139.83 42.5433 139.79 42.4937 139.762C42.4441 139.734 42.3886 139.718 42.3316 139.715C42.2703 139.703 42.2068 139.713 42.1517 139.743C42.0967 139.772 42.0534 139.82 42.0292 139.877C41.8886 140.197 42.2123 140.934 42.4765 141.181L42.5361 141.206ZM42.3742 139.873C42.4027 139.878 42.4299 139.889 42.454 139.905C42.4781 139.922 42.4988 139.942 42.5148 139.967C42.6237 140.297 42.6237 140.654 42.5148 140.985C42.2703 140.694 42.1481 140.32 42.174 139.941C42.174 139.903 42.2251 139.86 42.3316 139.869L42.3742 139.873Z" fill="#407BFF"/>
<path d="M78.8526 79.0741C78.7078 80.6588 78.4777 82.1498 78.2306 83.6792C77.9836 85.2085 77.6598 86.7166 77.2636 88.2374C76.8773 89.796 76.3761 91.3238 75.7641 92.8084C75.4341 93.6187 75.0335 94.3984 74.567 95.1386C74.3033 95.5606 74.0025 95.9584 73.6682 96.3271C73.266 96.7801 72.7961 97.1682 72.2752 97.4773L72.0962 97.5796L71.9983 97.6136C71.0734 97.9305 70.0748 97.9631 69.1313 97.7074C68.4308 97.5276 67.7553 97.2615 67.1206 96.915C66.5467 96.6015 65.997 96.2455 65.4762 95.85C65.2206 95.6583 64.982 95.4496 64.7435 95.2408C64.4963 95.0318 64.2602 94.81 64.0363 94.5763L65.374 92.638C65.8724 92.7998 66.4091 93.0086 66.9246 93.1619C67.4401 93.3153 67.9513 93.4814 68.4412 93.5879C68.8792 93.6975 69.3275 93.7603 69.7788 93.7754C70.1579 93.7754 70.4263 93.6731 70.3582 93.6433L70.0813 93.7796C70.3684 93.5073 70.6062 93.1874 70.7842 92.8339C71.0806 92.2858 71.3355 91.7162 71.5467 91.1299C72.0059 89.8192 72.3858 88.482 72.6841 87.1255C72.9951 85.7325 73.2635 84.3139 73.4978 82.8655C73.7321 81.4171 73.9238 79.9687 74.1197 78.58L78.8526 79.0741Z" fill="#FFC3BD"/>
<path d="M74.6437 76.7396C71.7128 79.2956 71.8747 85.5152 71.8747 85.5152L79.6194 88.3098C81.2595 85.7538 82.0646 80.8718 81.9198 78.7759C81.694 75.5554 78.1199 73.698 74.6437 76.7396Z" fill="#263238"/>
<path opacity="0.2" d="M81.924 78.8952C80.531 78.2264 78.6268 78.4394 76.7439 80.0837C75.0399 81.5705 74.3796 84.3097 74.1325 86.3332L79.6194 88.3098C81.2297 85.7964 82.0348 81.0465 81.924 78.8952Z" fill="black"/>
<path d="M34.3654 135.903L33.4282 132.903L39.946 129.368L40.879 132.367L34.3654 135.903Z" fill="#FFC3BD"/>
<path d="M33.654 132.622L36.014 135.242C36.0349 135.263 36.0515 135.287 36.0628 135.314C36.0741 135.341 36.0799 135.371 36.0799 135.4C36.0799 135.429 36.0741 135.458 36.0628 135.485C36.0515 135.512 36.0349 135.537 36.014 135.557L34.0544 137.555C34.0008 137.605 33.9379 137.643 33.8695 137.668C33.801 137.693 33.7283 137.704 33.6554 137.701C33.5826 137.698 33.5111 137.68 33.4451 137.65C33.3791 137.619 33.3198 137.575 33.2706 137.521C32.4655 136.597 32.1247 136.111 31.0852 134.965C30.4462 134.258 28.2012 131.919 27.3194 130.94C26.4376 129.96 27.4301 129.116 27.8902 129.453C29.9606 130.957 32.0352 132.162 33.1471 132.354C33.3405 132.387 33.5183 132.481 33.654 132.622Z" fill="#263238"/>
<path opacity="0.2" d="M40.879 132.367L39.946 129.368L35.1919 131.949L37.1728 134.382L40.879 132.367Z" fill="black"/>
<path d="M81.7068 102.027C81.7068 102.027 65.178 104.242 61.77 108.766C55.8358 116.643 37.062 129.64 37.062 129.64L38.766 135.131C38.766 135.131 64.3516 124.341 68.9013 115.318C77.2594 114.675 90.8573 117.427 93.0001 112.238C94.4272 108.783 93.7285 103.625 93.7285 103.625L81.7068 102.027Z" fill="#407BFF"/>
<path opacity="0.2" d="M81.7068 102.027C81.7068 102.027 65.178 104.242 61.77 108.766C55.8358 116.643 37.062 129.64 37.062 129.64L38.766 135.131C38.766 135.131 64.3516 124.341 68.9013 115.318C77.2594 114.675 90.8573 117.427 93.0001 112.238C94.4272 108.783 93.7285 103.625 93.7285 103.625L81.7068 102.027Z" fill="black"/>
<path d="M39.0983 135.928L35.4602 130.062L37.7862 128.149L41.2879 134.463L39.0983 135.928Z" fill="#407BFF"/>
<path d="M32.4782 132.162C32.6728 132.366 32.8884 132.549 33.1215 132.708C33.1335 132.716 33.1475 132.72 33.162 132.72C33.1764 132.72 33.1905 132.716 33.2024 132.708C33.215 132.701 33.2251 132.69 33.2312 132.677C33.2373 132.664 33.2392 132.649 33.2365 132.635C33.2365 132.516 33.0789 131.447 32.7083 131.263C32.6672 131.241 32.621 131.229 32.5741 131.229C32.5271 131.229 32.481 131.241 32.4399 131.263C32.3762 131.295 32.3215 131.342 32.2805 131.4C32.2396 131.458 32.2139 131.525 32.2056 131.596C32.2209 131.812 32.3184 132.015 32.4782 132.162ZM33.0661 132.49C32.606 132.145 32.3419 131.83 32.3547 131.638C32.3599 131.592 32.3772 131.548 32.4049 131.511C32.4325 131.473 32.4696 131.444 32.5123 131.425C32.5324 131.414 32.5552 131.408 32.5783 131.408C32.6015 131.408 32.6243 131.414 32.6444 131.425C32.8403 131.498 32.9937 132.06 33.0661 132.486V132.49Z" fill="#407BFF"/>
<path d="M33.1087 132.699H33.1385C33.1483 132.707 33.1603 132.711 33.1726 132.711C33.185 132.711 33.197 132.707 33.2067 132.699C33.2408 132.699 33.9565 132.124 33.9735 131.685C33.9748 131.628 33.9637 131.572 33.9409 131.519C33.9181 131.467 33.8841 131.42 33.8414 131.383C33.7968 131.338 33.739 131.31 33.6767 131.302C33.6145 131.293 33.5512 131.305 33.4964 131.336C33.1939 131.51 33.0235 132.299 33.0917 132.656C33.0934 132.672 33.0993 132.687 33.1087 132.699ZM33.769 131.527C33.7882 131.549 33.803 131.574 33.8125 131.601C33.822 131.628 33.826 131.656 33.8244 131.685C33.8244 131.949 33.4495 132.316 33.2237 132.507C33.2025 132.131 33.326 131.761 33.5688 131.472C33.5969 131.456 33.6296 131.451 33.6614 131.456C33.6932 131.461 33.7222 131.478 33.7435 131.502L33.769 131.527Z" fill="#407BFF"/>
<path d="M66.1961 93.2258L63.6913 90.8062L61.9532 94.2142C61.9532 94.2142 64.9948 95.8798 65.7574 95.1173L66.1961 93.2258Z" fill="#FFC3BD"/>
<path d="M60.3642 90.7806L59.9126 93.5752L61.9532 94.1929L63.6912 90.8062L60.3642 90.7806Z" fill="#FFC3BD"/>
<path d="M93.5581 74.6352C93.2429 73.8045 92.6806 72.9823 91.7902 72.9951C91.6071 72.9951 90.5122 72.9951 90.3163 73.0207C89.2939 73.0462 88.0159 73.1144 86.7805 73.272C84.4146 73.5444 82.0663 73.9526 79.7472 74.4946C78.6822 74.7843 77.6598 75.1464 76.8419 75.4574H76.8121C76.3474 75.6389 75.9549 75.9673 75.6941 76.3926C75.4334 76.8179 75.3189 77.3167 75.3679 77.8132C75.7939 82.316 76.8504 94.8191 76.2199 101.294L93.6859 103.595C94.7339 100.263 95.1514 92.6337 95.1599 86.4141C95.194 82.6781 94.8574 78.0304 93.5581 74.6352Z" fill="#263238"/>
<path opacity="0.2" d="M95.1002 83.2148L94.7552 83.2404L92.54 85.1574L90.2481 93.0512L82.3756 94.4272C84.2884 95.3942 89.8519 95.5901 93.1406 94.7168C93.6795 94.5691 94.157 94.2529 94.5034 93.8145C94.8498 93.3762 95.047 92.8385 95.0662 92.2801C95.1471 90.3077 95.1854 88.3055 95.1854 86.4269C95.1854 85.4087 95.1641 84.3224 95.1002 83.2148Z" fill="black"/>
<path d="M66.8351 85.7921C66.8351 85.7921 68.373 84.9401 71.257 85.7666C72.8629 86.2775 74.5947 86.2279 76.1688 85.626L77.2466 87.6452L67.4486 87.986L66.8351 85.7921Z" fill="#407BFF"/>
<path opacity="0.8" d="M66.8351 85.7921C66.8351 85.7921 68.373 84.9401 71.257 85.7666C72.8629 86.2775 74.5947 86.2279 76.1688 85.626L77.2466 87.6452L67.4486 87.986L66.8351 85.7921Z" fill="white"/>
<path d="M66.8352 85.7921C66.8352 85.7921 66.7713 85.1744 64.9096 85.1105C61.1651 84.987 59.5846 84.0285 59.5846 84.0285L59.4313 84.9955L67.4443 87.9775L66.8352 85.7921Z" fill="#407BFF"/>
<path opacity="0.8" d="M66.8352 85.7921C66.8352 85.7921 66.7713 85.1744 64.9096 85.1105C61.1651 84.987 59.5846 84.0285 59.5846 84.0285L59.4313 84.9955L67.4443 87.9775L66.8352 85.7921Z" fill="white"/>
<path d="M69.9833 100.165L63.048 98.1887C62.9614 98.1614 62.8827 98.1134 62.8189 98.0488C62.7551 97.9842 62.7079 97.905 62.6816 97.8181L59.1331 84.97C59.1132 84.9106 59.1102 84.8469 59.1246 84.786C59.1389 84.7251 59.17 84.6694 59.2142 84.6251C59.2585 84.5809 59.3142 84.5498 59.3751 84.5355C59.436 84.5211 59.4997 84.5241 59.5591 84.544L66.1663 86.4311L69.9833 100.165Z" fill="#407BFF"/>
<path d="M80.7739 100.766L71.6575 100.259L67.8618 86.5163L77.106 87.0318C77.2105 87.0409 77.3097 87.0817 77.3904 87.1487C77.471 87.2157 77.5294 87.3057 77.5576 87.4067L81.1275 100.323C81.1482 100.376 81.1545 100.434 81.1458 100.491C81.1371 100.548 81.1137 100.601 81.078 100.646C81.0422 100.691 80.9953 100.726 80.9419 100.747C80.8886 100.768 80.8306 100.774 80.7739 100.766Z" fill="#407BFF"/>
<path d="M69.9833 100.165L71.6575 100.259L67.8618 86.5163L66.1876 86.4226L69.9833 100.165Z" fill="#407BFF"/>
<path opacity="0.3" d="M69.9833 100.165L71.6575 100.259L67.8618 86.5163L66.1876 86.4226L69.9833 100.165Z" fill="black"/>
<path d="M94.4144 77.7578C94.5038 78.3712 94.5635 78.8909 94.6061 79.4618C94.6487 80.0326 94.6785 80.5609 94.7041 81.1147C94.7424 82.2137 94.7339 83.3171 94.6657 84.4247C94.5572 86.6978 94.1431 88.946 93.4346 91.1086C93.4346 91.147 93.3579 91.3301 93.3068 91.4665C93.2469 91.6033 93.1801 91.7369 93.1066 91.8669C92.9705 92.1054 92.8107 92.3295 92.6294 92.5357C92.3248 92.8783 91.9701 93.1728 91.5772 93.409C90.9731 93.7691 90.3223 94.0443 89.6432 94.2269C88.5123 94.5251 87.3525 94.7008 86.1841 94.7509C84.0076 94.8533 81.8264 94.7319 79.6748 94.3888L79.7855 92.033C81.7867 91.85 83.7772 91.5656 85.7495 91.181C86.6512 91.0111 87.5353 90.7587 88.3907 90.427C88.7079 90.3067 89.0063 90.1417 89.2768 89.9371C89.3663 89.8604 89.4089 89.7965 89.4004 89.788C89.3918 89.7795 89.3791 89.788 89.3663 89.8178C89.3539 89.8327 89.3425 89.8483 89.3322 89.8647C89.3066 89.9414 89.3322 89.8647 89.3322 89.8647C89.5408 88.9585 89.6973 88.0411 89.8008 87.117C89.8903 86.1713 89.9542 85.2128 89.9669 84.2415C89.9797 83.2702 89.9669 82.2904 89.9243 81.3106C89.903 80.8207 89.8775 80.3308 89.8391 79.8452L89.7795 79.1167L89.7156 78.4351L94.4144 77.7578Z" fill="#FFC3BD"/>
<path d="M94.4144 73.9919C92.344 72.4115 89.4856 72.4583 88.3141 76.6204C87.5473 79.3468 87.9562 84.8336 87.9562 84.8336L96.2249 84.6675C97.1493 80.3053 96.5103 75.5937 94.4144 73.9919Z" fill="#263238"/>
<path d="M85.9668 66.3197L84.2287 68.3602L81.8602 71.142C82.0084 71.4967 82.1322 71.861 82.2308 72.2326C82.6568 73.7065 81.3149 74.0047 80.1008 74.7502C80.1008 74.7502 78.2818 77.1571 82.6568 76.4542C87.0318 75.7513 87.6538 73.4722 87.6538 73.4722C85.6899 72.1388 85.8305 68.8672 85.9668 66.3197Z" fill="#FFC3BD"/>
<path d="M83.9731 76.1688C83.5324 76.2948 83.0842 76.393 82.6312 76.4627C82.047 76.57 81.4519 76.6058 80.8591 76.5692L80.7568 77.0762C80.5992 77.1869 80.5609 77.7791 81.5577 78.482C82.6099 78.2647 84.2415 77.3659 83.9731 76.1688Z" fill="#407BFF"/>
<path d="M86.8784 72.7395C86.8784 72.7395 86.052 74.9504 83.0444 75.7598C83.4704 76.9313 82.7718 78.2647 82.7718 78.2647C82.7718 78.2647 86.9679 76.8291 87.8412 75.3935C88.7145 73.9579 88.3396 73.1186 88.3396 73.1186C87.8845 72.8911 87.3867 72.762 86.8784 72.7395Z" fill="#263238"/>
<path d="M80.94 78.1667C80.94 78.1667 80.9698 76.3349 81.5066 75.7215C81.2254 74.8951 81.3745 74.4435 81.809 73.7236C80.893 73.9045 80.0825 74.4326 79.547 75.1975C78.9719 76.156 79.3723 78.1923 80.94 78.1667Z" fill="#263238"/>
<path opacity="0.2" d="M81.8602 71.142C82.0084 71.4967 82.1322 71.861 82.2308 72.2326C83.2276 71.8449 84.4162 70.503 84.3608 69.421C84.3499 69.063 84.2999 68.7073 84.2117 68.3602L81.8602 71.142Z" fill="black"/>
<path d="M76.0879 61.4292C75.2657 63.1545 75.9728 67.2526 79.8707 65.621C83.7686 63.9895 77.4255 58.6304 76.0879 61.4292Z" fill="#263238"/>
<path d="M84.642 65.0119C84.2841 65.7574 84.5908 67.5295 86.2735 66.8266C87.9562 66.1237 85.2 63.802 84.642 65.0119Z" fill="#263238"/>
<path d="M85.1148 66.2047C84.5695 66.8266 84.3864 68.6158 86.2011 68.39C88.0159 68.1643 85.9966 65.178 85.1148 66.2047Z" fill="#263238"/>
<path d="M85.5408 61.5527C86.248 64.8542 86.8188 66.7414 85.6729 68.9183C85.3057 69.6293 84.751 70.2263 84.069 70.6448C83.3869 71.0632 82.6034 71.2872 81.8032 71.2925C81.003 71.2977 80.2166 71.0841 79.5291 70.6746C78.8416 70.2652 78.2791 69.6755 77.9026 68.9694C76.4031 66.2771 75.4957 61.3312 78.2732 59.0479C78.8619 58.5385 79.5741 58.1927 80.3384 58.0451C81.1028 57.8975 81.8925 57.9534 82.6285 58.2071C83.3645 58.4607 84.0209 58.9033 84.532 59.4905C85.0431 60.0777 85.391 60.7888 85.5408 61.5527Z" fill="#FFC3BD"/>
<path d="M84.9529 57.7145C84.2798 54.7836 80.3521 55.8017 78.3499 57.5739C76.3477 59.3461 75.8323 60.7391 74.1453 61.787C77.2594 62.213 81.6685 60.9776 82.4949 59.9297C82.4928 60.4489 82.6137 60.9612 82.8477 61.4247C83.0817 61.8882 83.4221 62.2898 83.8411 62.5964C83.7827 63.5142 83.7827 64.4348 83.8411 65.3527L85.2639 64.6285L86.921 63.9639C89.3663 59.8317 87.9221 57.28 84.9529 57.7145Z" fill="#263238"/>
<path d="M81.4044 63.8233C81.3777 63.8236 81.3518 63.8143 81.3315 63.7971C81.3111 63.7799 81.2977 63.7559 81.2936 63.7296C81.2905 63.715 81.2904 63.7 81.2933 63.6854C81.2961 63.6708 81.3019 63.6569 81.3103 63.6446C81.3186 63.6322 81.3294 63.6217 81.3419 63.6136C81.3544 63.6056 81.3684 63.6001 81.3831 63.5975L86.0009 62.8094C86.0308 62.8045 86.0615 62.8116 86.0862 62.8291C86.1109 62.8467 86.1277 62.8733 86.133 62.9032C86.1354 62.9177 86.1349 62.9326 86.1314 62.947C86.128 62.9614 86.1217 62.9749 86.113 62.9868C86.1043 62.9987 86.0933 63.0087 86.0806 63.0163C86.0679 63.0239 86.0539 63.0289 86.0392 63.031L81.4214 63.8191L81.4044 63.8233Z" fill="white"/>
<path d="M80.7867 66.5625C79.9347 66.5625 78.9975 65.6466 78.695 64.5347C78.5978 64.2623 78.5646 63.9712 78.5978 63.6838C78.631 63.3965 78.7299 63.1207 78.8867 62.8776C78.9837 62.743 79.1119 62.634 79.2603 62.5598C79.4087 62.4856 79.5728 62.4485 79.7387 62.4516C80.5907 62.4516 81.5322 63.3675 81.8346 64.4794C81.93 64.753 81.9618 65.0448 81.9279 65.3326C81.894 65.6204 81.795 65.8968 81.6387 66.1408C81.5414 66.2748 81.4131 66.3832 81.2647 66.4567C81.1162 66.5301 80.9522 66.5665 80.7867 66.5625ZM79.7174 62.6944C79.5899 62.6919 79.4637 62.7196 79.349 62.7751C79.2342 62.8306 79.1342 62.9124 79.0571 63.0139C78.9242 63.2306 78.8414 63.4743 78.8148 63.7271C78.7883 63.98 78.8187 64.2355 78.9037 64.4751C79.1806 65.4975 80.0241 66.3325 80.7824 66.3367C80.9111 66.3436 81.0394 66.3179 81.1556 66.2621C81.2718 66.2063 81.372 66.122 81.447 66.0172C81.5806 65.8009 81.6641 65.5573 81.6914 65.3045C81.7187 65.0517 81.689 64.7959 81.6046 64.556C81.3277 63.5336 80.4842 62.6987 79.7259 62.6944H79.7174Z" fill="white"/>
<path d="M78.1497 65.178C78.1301 65.1824 78.1097 65.1824 78.0901 65.178C78.0768 65.1706 78.0652 65.1605 78.056 65.1483C78.0468 65.1362 78.0401 65.1223 78.0366 65.1075C78.033 65.0928 78.0324 65.0774 78.0351 65.0624C78.0377 65.0474 78.0433 65.0331 78.0517 65.0204C78.15 64.8936 78.2822 64.7971 78.4329 64.7421C78.5836 64.6871 78.7468 64.6757 78.9037 64.7094C78.9324 64.7174 78.957 64.7358 78.9727 64.761C78.9885 64.7863 78.9943 64.8165 78.9889 64.8457C78.9818 64.8749 78.9636 64.9002 78.9381 64.9161C78.9126 64.932 78.8819 64.9373 78.8526 64.9309C78.8526 64.9309 78.4266 64.8372 78.2264 65.1397C78.217 65.151 78.2053 65.1603 78.1921 65.1669C78.1789 65.1735 78.1644 65.1773 78.1497 65.178Z" fill="white"/>
<path d="M87.5217 64.0789C87.3244 64.9234 86.8261 65.667 86.1202 66.1706C85.1957 66.8011 84.4715 66.0172 84.5099 64.9181C84.544 63.9298 85.0637 62.4133 86.0989 62.2216C87.134 62.0299 87.756 63.048 87.5217 64.0789Z" fill="#FFC3BD"/>
<path d="M80.2754 64.326C80.399 64.5688 80.3692 64.8372 80.2115 64.9224C80.0539 65.0076 79.8281 64.8798 79.7046 64.6327C79.5811 64.3856 79.6151 64.1215 79.7685 64.0363C79.9219 63.9511 80.1519 64.0789 80.2754 64.326Z" fill="#263238"/>
<path d="M77.5746 65.4336C77.6854 65.6849 77.6428 65.9491 77.4809 66.0257C77.319 66.1024 77.0975 65.9618 76.991 65.7105C76.8845 65.4592 76.9271 65.1908 77.089 65.1184C77.2508 65.0459 77.4681 65.178 77.5746 65.4336Z" fill="#263238"/>
<path d="M76.2114 63.9298C76.2372 63.9226 76.2609 63.9091 76.2802 63.8905C76.2995 63.872 76.314 63.8489 76.3221 63.8233C76.3827 63.6301 76.4862 63.4531 76.6249 63.3055C76.7636 63.1579 76.9339 63.0437 77.123 62.9713C77.1635 62.9586 77.1973 62.9304 77.2172 62.893C77.2371 62.8555 77.2415 62.8118 77.2295 62.7711C77.2242 62.7509 77.2148 62.732 77.2019 62.7156C77.189 62.6992 77.1729 62.6856 77.1545 62.6756C77.1362 62.6656 77.116 62.6595 77.0952 62.6576C77.0744 62.6557 77.0534 62.6581 77.0336 62.6646C76.7907 62.7521 76.5719 62.8957 76.3949 63.0837C76.218 63.2717 76.088 63.4989 76.0154 63.7466C76.0082 63.7665 76.0051 63.7876 76.0064 63.8086C76.0077 63.8297 76.0133 63.8503 76.0229 63.8691C76.0325 63.8878 76.0458 63.9045 76.0622 63.9178C76.0785 63.9312 76.0974 63.9411 76.1177 63.9469C76.1499 63.9519 76.183 63.9459 76.2114 63.9298Z" fill="#263238"/>
<path d="M77.5022 67.4401C76.7269 67.4401 75.8706 66.5881 75.5937 65.5912C75.5061 65.3415 75.4767 65.0751 75.5077 64.8122C75.5387 64.5494 75.6293 64.2971 75.7726 64.0747C75.8619 63.9565 75.9779 63.8612 76.1113 63.7967C76.2446 63.7323 76.3914 63.7005 76.5394 63.704C77.319 63.704 78.1753 64.556 78.4522 65.5529C78.5391 65.802 78.5682 66.0676 78.5372 66.3297C78.5062 66.5917 78.4159 66.8432 78.2733 67.0652C78.1841 67.1848 78.0675 67.2812 77.9333 67.3464C77.7992 67.4117 77.6513 67.4438 77.5022 67.4401ZM76.5309 63.9256C76.4169 63.9232 76.3039 63.9483 76.2016 63.9987C76.0993 64.0491 76.0106 64.1234 75.943 64.2152C75.8216 64.4097 75.7459 64.6293 75.7215 64.8573C75.6972 65.0853 75.7248 65.3158 75.8025 65.5316C76.0538 66.456 76.8121 67.21 77.5065 67.2143C77.6207 67.2171 77.734 67.1927 77.837 67.1431C77.94 67.0935 78.0296 67.02 78.0986 66.9289C78.2189 66.7339 78.2939 66.5144 78.3182 66.2866C78.3426 66.0588 78.3155 65.8285 78.2392 65.6125C77.9878 64.6881 77.2253 63.9341 76.5352 63.9085L76.5309 63.9256Z" fill="white"/>
<path d="M78.4692 65.0417C78.4467 65.8161 78.3207 66.5841 78.0943 67.325C78.283 67.3735 78.48 67.38 78.6714 67.3439C78.8627 67.3078 79.0439 67.2301 79.2019 67.1163L78.4692 65.0417Z" fill="#ED847E"/>
<path d="M79.7557 68.0961C80.0614 68.01 80.3466 67.863 80.594 67.6638C80.8415 67.4647 81.0461 67.2176 81.1956 66.9374C81.1998 66.9276 81.2021 66.9171 81.2022 66.9064C81.2023 66.8958 81.2004 66.8852 81.1964 66.8753C81.1924 66.8654 81.1866 66.8564 81.1791 66.8487C81.1717 66.8411 81.1628 66.8351 81.153 66.8309C81.1336 66.8231 81.1121 66.8227 81.0924 66.8298C81.0728 66.8369 81.0565 66.8509 81.0465 66.8692C80.8811 67.1717 80.6483 67.432 80.3661 67.63C80.0839 67.828 79.7599 67.9583 79.4192 68.0109C79.3981 68.015 79.3793 68.027 79.3667 68.0444C79.3541 68.0618 79.3485 68.0833 79.351 68.1046C79.3551 68.1254 79.3673 68.1438 79.3848 68.1557C79.4023 68.1677 79.4238 68.1723 79.4447 68.1685C79.55 68.1519 79.6539 68.1277 79.7557 68.0961Z" fill="#263238"/>
<path d="M80.6673 62.3323C80.6907 62.3195 80.7099 62.3003 80.7227 62.2769C80.7446 62.2402 80.7511 62.1963 80.7407 62.1547C80.7304 62.1132 80.704 62.0775 80.6673 62.0554C80.4515 61.9235 80.2067 61.8464 79.9543 61.8308C79.7018 61.8152 79.4494 61.8616 79.219 61.966C79.1999 61.9754 79.1829 61.9886 79.1691 62.0048C79.1553 62.0209 79.1449 62.0397 79.1385 62.06C79.1321 62.0803 79.1299 62.1017 79.132 62.1229C79.1342 62.1441 79.1405 62.1646 79.1508 62.1832C79.1707 62.2209 79.2047 62.2492 79.2454 62.262C79.2861 62.2747 79.3302 62.2709 79.368 62.2514C79.55 62.1718 79.7486 62.1376 79.9467 62.1517C80.1449 62.1658 80.3366 62.2278 80.5055 62.3323C80.5296 62.3479 80.5577 62.3562 80.5864 62.3562C80.6151 62.3562 80.6432 62.3479 80.6673 62.3323Z" fill="#263238"/>
<path d="M80.629 92.1651L77.958 91.0319L78.0475 94.4399C78.0475 94.4399 80.6929 95.5092 81.1317 94.0991L80.629 92.1651Z" fill="#FFC3BD"/>
<path d="M74.6395 91.7945L75.2273 94.2184L78.0517 94.4272L77.9623 91.0319L74.6395 91.7945Z" fill="#FFC3BD"/>
</svg>
