<svg width="135" height="45" viewBox="0 0 135 45" fill="none" xmlns="http://www.w3.org/2000/svg">
<rect x="93" width="12" height="45" fill="#8DBDFF"/>
<rect x="108" width="12" height="45" fill="#8DBDFF" fill-opacity="0.6"/>
<rect x="123" width="12" height="45" fill="#8DBDFF" fill-opacity="0.4"/>
<path d="M10.1229 30H1.17094V15.096H6.30694V26.136H10.4589L10.1229 30ZM16.005 30H11.013V18.744H16.005V30ZM10.917 16.32C10.917 14.96 11.773 14.28 13.485 14.28C15.197 14.28 16.053 14.96 16.053 16.32C16.053 17.024 15.837 17.528 15.405 17.832C14.989 18.136 14.349 18.288 13.485 18.288C12.621 18.288 11.973 18.144 11.541 17.856C11.125 17.552 10.917 17.04 10.917 16.32ZM29.0196 23.976C29.0196 25.032 28.9556 25.92 28.8276 26.64C28.7156 27.344 28.4996 27.984 28.1796 28.56C27.5556 29.68 26.3156 30.24 24.4596 30.24C23.3076 30.24 22.3876 29.992 21.6996 29.496L21.5076 30H17.5716V14.616H22.3956V18.696C23.0676 18.376 23.8036 18.216 24.6036 18.216C26.3796 18.216 27.5556 18.664 28.1316 19.56C28.7236 20.44 29.0196 21.912 29.0196 23.976ZM23.2836 26.832C23.6196 26.832 23.8276 26.656 23.9076 26.304C23.9876 25.936 24.0276 25.304 24.0276 24.408C24.0276 23.496 23.9796 22.856 23.8836 22.488C23.7876 22.104 23.5796 21.912 23.2596 21.912C23.0516 21.912 22.8036 21.976 22.5156 22.104V26.736C22.8036 26.8 23.0596 26.832 23.2836 26.832ZM35.1026 23.568V30H30.1586V18.504H34.4306L34.5746 19.272H34.6706C35.0546 18.92 35.4946 18.68 35.9906 18.552C36.4866 18.408 37.2146 18.336 38.1746 18.336L38.0306 22.32H36.3986C35.9186 22.32 35.5826 22.408 35.3906 22.584C35.1986 22.76 35.1026 23.088 35.1026 23.568ZM49.3329 21.6L49.1889 26.4C49.1889 26.624 49.2689 26.776 49.4289 26.856C49.6049 26.92 49.9089 26.952 50.3409 26.952L49.8849 30.144C48.9249 30.208 48.2769 30.24 47.9409 30.24C46.7729 30.24 45.9249 29.928 45.3969 29.304H45.2289C44.4609 29.928 43.4929 30.24 42.3249 30.24C41.1729 30.24 40.2929 29.936 39.6849 29.328C39.0929 28.704 38.7969 27.848 38.7969 26.76C38.7969 25.416 39.2449 24.48 40.1409 23.952C41.0529 23.424 42.4929 23.088 44.4609 22.944V22.512C44.4609 22.224 44.3089 22.08 44.0049 22.08C43.1889 22.08 41.7889 22.328 39.8049 22.824L39.0609 19.032C41.3489 18.488 43.3169 18.216 44.9649 18.216C46.6129 18.216 47.7489 18.488 48.3729 19.032C49.0129 19.576 49.3329 20.432 49.3329 21.6ZM43.9089 27.144C44.3729 27.144 44.6049 26.904 44.6049 26.424V25.512C43.7729 25.624 43.3569 25.944 43.3569 26.472C43.3569 26.92 43.5409 27.144 43.9089 27.144ZM50.6775 19.872C50.6775 18.288 51.1575 17.056 52.1175 16.176C53.0775 15.296 54.4055 14.856 56.1015 14.856C57.8135 14.856 59.5735 15.016 61.3815 15.336L60.8295 19.56C58.8295 19.16 57.5175 18.96 56.8935 18.96C56.2695 18.96 55.9575 19.152 55.9575 19.536C55.9575 19.68 56.0055 19.784 56.1015 19.848C56.1975 19.896 56.2695 19.936 56.3175 19.968C56.3655 20 56.4535 20.04 56.5815 20.088C56.7255 20.136 56.8375 20.184 56.9175 20.232C57.0135 20.264 57.3015 20.384 57.7815 20.592C58.2775 20.784 58.6455 20.944 58.8855 21.072C59.1415 21.184 59.4855 21.376 59.9175 21.648C61.1655 22.464 61.7895 23.664 61.7895 25.248C61.7895 26.832 61.3175 28.064 60.3735 28.944C59.4295 29.808 58.0695 30.24 56.2935 30.24C54.5335 30.24 52.8055 30.024 51.1095 29.592L51.4455 25.536C53.5895 26.08 55.0375 26.352 55.7895 26.352C56.2855 26.352 56.5335 26.176 56.5335 25.824C56.5335 25.664 56.4695 25.536 56.3415 25.44C56.2295 25.344 56.0535 25.24 55.8135 25.128C55.5895 25.016 55.2535 24.872 54.8055 24.696C54.3575 24.504 53.9815 24.344 53.6775 24.216C53.3735 24.072 53.0135 23.856 52.5975 23.568C51.3175 22.688 50.6775 21.456 50.6775 19.872ZM68.2311 24.72C68.9671 20.672 69.3431 18.6 69.3591 18.504H74.3031L70.9671 30.192C70.6311 31.376 70.1111 32.184 69.4071 32.616C68.7191 33.064 67.5831 33.288 65.9991 33.288H63.1191L62.5671 29.856H64.4871C64.9031 29.856 65.1111 29.72 65.1111 29.448C65.1111 29.272 65.0711 29.048 64.9911 28.776L61.8471 18.504H67.1271L68.1351 24.72H68.2311ZM83.6374 26.424C83.6374 28.968 82.1574 30.24 79.1974 30.24C77.6614 30.24 76.1734 30.072 74.7334 29.736L75.0454 26.208C77.0454 26.688 78.3734 26.928 79.0294 26.928C79.2534 26.928 79.3654 26.856 79.3654 26.712C79.3654 26.568 79.2374 26.448 78.9814 26.352C77.3334 25.792 76.1334 25.2 75.3814 24.576C74.6294 23.952 74.2534 23.056 74.2534 21.888C74.2534 20.72 74.6614 19.816 75.4774 19.176C76.3094 18.536 77.4214 18.216 78.8134 18.216C80.2214 18.216 81.7654 18.376 83.4454 18.696L82.9414 22.32C80.8294 21.904 79.5494 21.696 79.1014 21.696C78.8934 21.696 78.7894 21.776 78.7894 21.936C78.7894 22.064 78.9254 22.176 79.1974 22.272C80.5254 22.704 81.4854 23.136 82.0774 23.568C82.6694 23.984 83.0774 24.416 83.3014 24.864C83.5254 25.312 83.6374 25.832 83.6374 26.424Z" fill="#8DBDFF"/>
</svg>
