<svg width="23" height="24" viewBox="0 0 23 24" fill="none" xmlns="http://www.w3.org/2000/svg">
<path d="M14.3 4.8L17.2 7.7M7 7H4C3.73478 7 3.48043 7.10536 3.29289 7.2929C3.10536 7.48043 3 7.73479 3 8V18C3 18.6 3.4 19 4 19H15C15.6 19 16 18.6 16 18V13.5M18.4 3.5C18.6128 3.68769 18.7833 3.91851 18.9 4.17713C19.0167 4.43575 19.0771 4.71625 19.0771 5C19.0771 5.28376 19.0167 5.56426 18.9 5.82288C18.7833 6.0815 18.6128 6.31232 18.4 6.5L11.6 13.3L8 14L8.7 10.4L15.6 3.6C15.9739 3.23355 16.4765 3.02829 17 3.02829C17.5235 3.02829 18.0261 3.23355 18.4 3.6V3.5Z" stroke="white" stroke-width="2" stroke-linecap="round" stroke-linejoin="round"/>
</svg>
