<svg width="24" height="24" viewBox="0 0 24 24" fill="none" xmlns="http://www.w3.org/2000/svg">
<path d="M9.09998 4H4.99998C4.49998 4 4.09998 4.4 4.09998 4.9V9C4.09998 9.5 4.49998 9.9 4.99998 9.9H8.99998C9.49998 9.9 9.89998 9.5 9.89998 9V5C9.89998 4.5 9.49998 4.1 8.99998 4.1L9.09998 4ZM19.1 4H15C14.5 4 14.1 4.4 14.1 4.9V9C14.1 9.5 14.5 9.9 15 9.9H19C19.5 9.9 19.9 9.5 19.9 9V5C19.9 4.5 19.5 4.1 19 4.1L19.1 4ZM9.09998 14H4.99998C4.49998 14 4.09998 14.4 4.09998 14.9V19C4.09998 19.5 4.49998 19.9 4.99998 19.9H8.99998C9.49998 19.9 9.89998 19.5 9.89998 19V15C9.89998 14.5 9.49998 14.1 8.99998 14.1L9.09998 14ZM19.1 14H15C14.5 14 14.1 14.4 14.1 14.9V19C14.1 19.5 14.5 19.9 15 19.9H19C19.5 19.9 19.9 19.5 19.9 19V15C19.9 14.5 19.5 14.1 19 14.1L19.1 14Z" stroke="#8DBDFF" stroke-width="2" stroke-linecap="round" stroke-linejoin="round"/>
</svg>
