<svg width="24" height="24" viewBox="0 0 24 24" fill="none" xmlns="http://www.w3.org/2000/svg">
<path d="M7.1 20C6.27783 20 5.48933 19.6734 4.90797 19.092C4.32661 18.5107 4 17.7222 4 16.9V4.9C4 4.4 4.4 4 4.9 4H9.3C9.8 4 10.3 4.4 10.3 4.9V16.9C10.3 18.6 8.8 20 7.1 20ZM7.1 20H19.1C19.6 20 20 19.6 20 19.1V14.7C20 14.2 19.6 13.7 19.1 13.7H14.7L14.1 14L10.3 17.7L10.2 17.9M7.1 20H7.2C8.6 19.7 9.3 19.3 10.2 17.9M10.2 17.9L18.2 9.9C18.5 9.6 18.5 9 18.2 8.7L15.1 5.5V5.4C14.8 5.1 14.1 5.1 13.8 5.4L10.2 9V17.9Z" stroke="white" stroke-width="2" stroke-linecap="round"/>
</svg>
