<svg width="24" height="24" viewBox="0 0 24 24" fill="none" xmlns="http://www.w3.org/2000/svg">
<path d="M4.5 17H4C3.73478 17 3.48043 16.8946 3.29289 16.7071C3.10536 16.5196 3 16.2652 3 16C3 15.2044 3.31607 14.4413 3.87868 13.8787C4.44129 13.3161 5.20435 13 6 13H7M7 10C6.64586 9.91179 6.31533 9.7471 6.03162 9.51751C5.74792 9.28792 5.51792 8.99899 5.35779 8.67104C5.19766 8.34308 5.11128 7.98403 5.10471 7.61913C5.09815 7.25422 5.17155 6.89231 5.31978 6.5588C5.46801 6.22529 5.68745 5.92828 5.96271 5.68863C6.23797 5.44898 6.56236 5.2725 6.9131 5.1716C7.26384 5.07069 7.63242 5.0478 7.99294 5.10453C8.35347 5.16127 8.69721 5.29625 9 5.50001M19.5 17H20C20.6 17 21 16.6 21 16C21 15.2044 20.6839 14.4413 20.1213 13.8787C19.5587 13.3161 18.7956 13 18 13H17M17 10C17.3541 9.91179 17.6847 9.7471 17.9684 9.51751C18.2521 9.28792 18.4821 8.99899 18.6422 8.67104C18.8023 8.34308 18.8887 7.98403 18.8953 7.61913C18.9019 7.25422 18.8284 6.89231 18.6802 6.5588C18.532 6.22529 18.3125 5.92828 18.0373 5.68863C17.762 5.44898 17.4376 5.2725 17.0869 5.1716C16.7362 5.07069 16.3676 5.0478 16.0071 5.10453C15.6465 5.16127 15.3028 5.29625 15 5.50001M15.5 19H8.5C8.23478 19 7.98043 18.8946 7.79289 18.7071C7.60536 18.5196 7.5 18.2652 7.5 18C7.5 17.2044 7.81607 16.4413 8.37868 15.8787C8.94129 15.3161 9.70435 15 10.5 15H13.5C14.2956 15 15.0587 15.3161 15.6213 15.8787C16.1839 16.4413 16.5 17.2044 16.5 18C16.5 18.6 16.1 19 15.5 19ZM14.5 9.50001C14.5 10.163 14.2366 10.7989 13.7678 11.2678C13.2989 11.7366 12.663 12 12 12C11.337 12 10.7011 11.7366 10.2322 11.2678C9.76339 10.7989 9.5 10.163 9.5 9.50001C9.5 8.83696 9.76339 8.20108 10.2322 7.73224C10.7011 7.2634 11.337 7.00001 12 7.00001C12.663 7.00001 13.2989 7.2634 13.7678 7.73224C14.2366 8.20108 14.5 8.83696 14.5 9.50001Z" stroke="#8DBDFF" stroke-width="2" stroke-linecap="round"/>
</svg>
